<svg width="7" height="15" viewBox="0 0 7 15" fill="none" xmlns="http://www.w3.org/2000/svg">
<path d="M1.16123 9.05991e-05C1.31063 -0.000417709 1.45824 0.0325546 1.59321 0.0965834C1.72819 0.160612 1.84711 0.254071 1.94123 0.370091L6.77123 6.37009C6.91831 6.54902 6.99872 6.77347 6.99872 7.00509C6.99872 7.23672 6.91831 7.46116 6.77123 7.64009L1.77123 13.6401C1.60149 13.8443 1.35758 13.9727 1.09315 13.9971C0.828728 14.0215 0.565447 13.9398 0.36123 13.7701C0.157014 13.6004 0.0285897 13.3564 0.00421 13.092C-0.0201697 12.8276 0.0614915 12.5643 0.23123 12.3601L4.70123 7.00009L0.381231 1.64009C0.258948 1.49331 0.181271 1.31456 0.157391 1.12502C0.133512 0.935468 0.164428 0.743043 0.246484 0.570516C0.32854 0.397988 0.4583 0.252577 0.62041 0.151486C0.782521 0.050396 0.970197 -0.002141 1.16123 9.05991e-05Z" fill="#737919"/>
</svg>
