<svg width="32" height="32" viewBox="0 0 32 32" fill="none" xmlns="http://www.w3.org/2000/svg">
<path fill-rule="evenodd" clip-rule="evenodd" d="M4.69852 11.8094C4.92642 9.04515 6.18549 6.46767 8.22573 4.58871C10.266 2.70976 12.9382 1.66674 15.7119 1.66675H16.2879C19.0615 1.66674 21.7337 2.70976 23.774 4.58871C25.8142 6.46767 27.0733 9.04515 27.3012 11.8094C27.5548 14.8885 26.6036 17.9458 24.6479 20.3374L18.2572 28.1521C17.9837 28.4865 17.6393 28.756 17.2489 28.9411C16.8585 29.1261 16.4319 29.2221 15.9999 29.2221C15.5678 29.2221 15.1412 29.1261 14.7508 28.9411C14.3604 28.756 14.016 28.4865 13.7425 28.1521L7.35185 20.3374C5.39601 17.9458 4.44476 14.8885 4.69852 11.8094ZM15.7119 3.66675C13.4405 3.66709 11.2523 4.52145 9.58161 6.06024C7.91093 7.59903 6.8799 9.70974 6.69318 11.9734C6.48198 14.5359 7.27356 17.0803 8.90118 19.0707L15.2919 26.8867C15.3778 26.9919 15.486 27.0766 15.6086 27.1348C15.7313 27.193 15.8654 27.2232 16.0012 27.2232C16.137 27.2232 16.271 27.193 16.3937 27.1348C16.5164 27.0766 16.6246 26.9919 16.7105 26.8867L23.1012 19.0707C24.7278 17.0799 25.5185 14.5355 25.3065 11.9734C25.1198 9.70951 24.0886 7.59861 22.4176 6.05979C20.7466 4.52097 18.5581 3.66676 16.2865 3.66675H15.7105H15.7119Z" fill="#737919"/>
<path d="M17.3332 21.3333C17.3332 21.687 17.1927 22.0261 16.9426 22.2761C16.6926 22.5262 16.3535 22.6667 15.9998 22.6667C15.6462 22.6667 15.3071 22.5262 15.057 22.2761C14.807 22.0261 14.6665 21.687 14.6665 21.3333C14.6665 20.9797 14.807 20.6406 15.057 20.3905C15.3071 20.1405 15.6462 20 15.9998 20C16.3535 20 16.6926 20.1405 16.9426 20.3905C17.1927 20.6406 17.3332 20.9797 17.3332 21.3333Z" fill="#737919"/>
<path fill-rule="evenodd" clip-rule="evenodd" d="M15.9998 10.3333C14.7372 10.3333 13.6665 11.3933 13.6665 12.7613C13.6665 13.0265 13.5611 13.2808 13.3736 13.4684C13.1861 13.6559 12.9317 13.7613 12.6665 13.7613C12.4013 13.7613 12.1469 13.6559 11.9594 13.4684C11.7719 13.2808 11.6665 13.0265 11.6665 12.7613C11.6665 10.3426 13.5798 8.33325 15.9998 8.33325C18.4198 8.33325 20.3332 10.3426 20.3332 12.7613C20.3332 14.6693 19.1492 16.3133 17.4638 16.9306C17.3188 16.9812 17.1877 17.0653 17.0812 17.1759C17.0052 17.2599 16.9998 17.3119 16.9998 17.3333C16.9998 17.5985 16.8945 17.8528 16.7069 18.0404C16.5194 18.2279 16.2651 18.3333 15.9998 18.3333C15.7346 18.3333 15.4803 18.2279 15.2927 18.0404C15.1052 17.8528 14.9998 17.5985 14.9998 17.3333C14.9998 16.1013 15.9905 15.3413 16.7758 15.0533C17.2383 14.8758 17.6354 14.5611 17.9138 14.1514C18.1922 13.7417 18.3385 13.2566 18.3332 12.7613C18.3332 11.3933 17.2625 10.3333 15.9998 10.3333Z" fill="#737919"/>
</svg>
