<svg width="35" height="35" viewBox="0 0 35 35" fill="none" xmlns="http://www.w3.org/2000/svg">
<path d="M18.375 14.875C19.1135 14.875 19.845 14.882 20.594 15.1515C21.3167 15.4105 22.1165 15.9408 22.897 17.1115C22.9608 17.2071 23.0428 17.2892 23.1383 17.3531C23.2338 17.417 23.3409 17.4615 23.4536 17.484C23.5663 17.5065 23.6823 17.5066 23.7951 17.4843C23.9078 17.462 24.015 17.4176 24.1106 17.3539C24.2062 17.2901 24.2883 17.2081 24.3523 17.1126C24.4162 17.0171 24.4607 16.91 24.4832 16.7973C24.5057 16.6846 24.5058 16.5685 24.4834 16.4558C24.4611 16.3431 24.4168 16.2359 24.353 16.1402C23.3818 14.6842 22.288 13.9003 21.1855 13.5048C20.1337 13.125 19.1275 13.125 18.41 13.125H18.375C18.1429 13.125 17.9204 13.2172 17.7563 13.3813C17.5922 13.5454 17.5 13.7679 17.5 14C17.5 14.2321 17.5922 14.4546 17.7563 14.6187C17.9204 14.7828 18.1429 14.875 18.375 14.875ZM14 8.75V10.1325C8.94075 11.6375 5.25 16.3258 5.25 21.875C5.25 22.1071 5.34219 22.3296 5.50628 22.4937C5.67038 22.6578 5.89294 22.75 6.125 22.75H28.875C29.1071 22.75 29.3296 22.6578 29.4937 22.4937C29.6578 22.3296 29.75 22.1071 29.75 21.875C29.7498 19.2366 28.8982 16.6687 27.3218 14.5531C25.7453 12.4375 23.5282 10.8871 21 10.1325V8.75C21 7.82174 20.6313 6.9315 19.9749 6.27513C19.3185 5.61875 18.4283 5.25 17.5 5.25C16.5717 5.25 15.6815 5.61875 15.0251 6.27513C14.3687 6.9315 14 7.82174 14 8.75ZM17.5 7C17.9641 7 18.4092 7.18437 18.7374 7.51256C19.0656 7.84075 19.25 8.28587 19.25 8.75V9.7475C18.0892 9.58141 16.9108 9.58141 15.75 9.7475V8.75C15.75 8.28587 15.9344 7.84075 16.2626 7.51256C16.5908 7.18437 17.0359 7 17.5 7ZM17.5 11.375C20.1336 11.3746 22.6711 12.3639 24.6095 14.1467C26.5479 15.9295 27.7455 18.3756 27.965 21H7.035C7.25446 18.3756 8.45212 15.9295 10.3905 14.1467C12.3289 12.3639 14.8664 11.3746 17.5 11.375ZM6.125 24.5C5.42881 24.5 4.76113 24.7766 4.26884 25.2688C3.77656 25.7611 3.5 26.4288 3.5 27.125C3.5 27.8212 3.77656 28.4889 4.26884 28.9812C4.76113 29.4734 5.42881 29.75 6.125 29.75H28.875C29.5712 29.75 30.2389 29.4734 30.7312 28.9812C31.2234 28.4889 31.5 27.8212 31.5 27.125C31.5 26.4288 31.2234 25.7611 30.7312 25.2688C30.2389 24.7766 29.5712 24.5 28.875 24.5H6.125ZM5.25 27.125C5.25 26.8929 5.34219 26.6704 5.50628 26.5063C5.67038 26.3422 5.89294 26.25 6.125 26.25H28.875C29.1071 26.25 29.3296 26.3422 29.4937 26.5063C29.6578 26.6704 29.75 26.8929 29.75 27.125C29.75 27.3571 29.6578 27.5796 29.4937 27.7437C29.3296 27.9078 29.1071 28 28.875 28H6.125C5.89294 28 5.67038 27.9078 5.50628 27.7437C5.34219 27.5796 5.25 27.3571 5.25 27.125Z" fill="#737919"/>
</svg>
