<svg width="25" height="25" viewBox="0 0 25 25" fill="none" xmlns="http://www.w3.org/2000/svg">
<path opacity="0.5" d="M12.5 8.33325V12.4999L15.1042 15.1041" stroke="#737919" stroke-width="1.5" stroke-linecap="round" stroke-linejoin="round"/>
<path d="M6.60054 6.88574L6.67174 6.88607L6.66912 7.44858L6.04066 7.44562L6.60054 6.88574ZM18.9985 19.7054C15.345 23.0003 9.7496 22.9679 6.06817 19.6389L6.46582 19.2413C9.93027 22.3541 15.17 22.3796 18.6008 19.3077L18.9985 19.7054ZM3.88862 15.3383C4.2883 16.5211 4.92507 17.609 5.75818 18.5347L5.36054 18.9324C4.466 17.9449 3.78266 16.7819 3.35499 15.5162C2.92761 14.2513 2.76594 12.9136 2.87796 11.5868L3.43697 11.6635C3.33577 12.9048 3.48877 14.1549 3.88862 15.3383ZM19.3079 18.6006C22.3798 15.1698 22.3543 9.93005 19.2415 6.4656L19.6392 6.06795C22.968 9.7493 22.9996 15.3447 19.7056 18.9982L19.3079 18.6006ZM6.39945 5.69213L6.00171 5.29439C9.65523 1.99947 15.2506 2.03184 18.9321 5.36084L18.5344 5.75849C15.07 2.64568 9.83025 2.62021 6.39945 5.69213ZM4.22662 5.0066L4.78913 5.0036L4.78949 5.07413L4.22982 5.63336L4.22662 5.0066Z" stroke="#737919"/>
</svg>
