<svg width="25" height="25" viewBox="0 0 25 25" fill="none" xmlns="http://www.w3.org/2000/svg">
<path d="M12.5 12.5C14.2259 12.5 15.625 11.1009 15.625 9.375C15.625 7.64911 14.2259 6.25 12.5 6.25C10.7741 6.25 9.375 7.64911 9.375 9.375C9.375 11.1009 10.7741 12.5 12.5 12.5Z" stroke="#666666" stroke-width="1.5"/>
<path d="M12.5002 22.9167C18.2531 22.9167 22.9168 18.253 22.9168 12.5C22.9168 6.74707 18.2531 2.08337 12.5002 2.08337C6.7472 2.08337 2.0835 6.74707 2.0835 12.5C2.0835 18.253 6.7472 22.9167 12.5002 22.9167Z" stroke="#666666" stroke-width="1.5"/>
<path d="M18.7187 20.8333C18.5521 17.8208 17.6302 15.625 12.5 15.625C7.36979 15.625 6.44792 17.8208 6.28125 20.8333" stroke="#666666" stroke-width="1.5" stroke-linecap="round"/>
</svg>
