<svg width="25" height="25" viewBox="0 0 25 25" fill="none" xmlns="http://www.w3.org/2000/svg">
<path d="M15.5678 1.30212C14.1439 1.30212 12.9949 1.30212 12.0918 1.424C11.1543 1.549 10.3647 1.81983 9.73762 2.44587C9.19179 2.99275 8.91471 3.66462 8.76992 4.45421C8.62929 5.22192 8.60221 6.16046 8.59596 7.28754C8.59485 7.49474 8.6761 7.69389 8.82184 7.84119C8.96757 7.98848 9.16584 8.07185 9.37304 8.07296C9.58024 8.07406 9.7794 7.99281 9.92669 7.84708C10.074 7.70135 10.1574 7.50308 10.1585 7.29587C10.1647 6.15733 10.1939 5.35004 10.3064 4.7365C10.4158 4.14692 10.5897 3.80421 10.8428 3.55108C11.1314 3.26254 11.5366 3.07504 12.3012 2.97192C13.0876 2.86671 14.1303 2.86462 15.6251 2.86462H16.6668C18.1626 2.86462 19.2053 2.86671 19.9918 2.97192C20.7564 3.07504 21.1605 3.26358 21.4501 3.55108C21.7376 3.83962 21.9251 4.24379 22.0282 5.00942C22.1345 5.79483 22.1355 6.83858 22.1355 8.33337V16.6667C22.1355 18.1615 22.1345 19.2042 22.0282 19.9917C21.9251 20.7563 21.7376 21.1605 21.4491 21.449C21.1605 21.7375 20.7564 21.925 19.9918 22.0282C19.2053 22.1334 18.1626 22.1355 16.6668 22.1355H15.6251C14.1303 22.1355 13.0876 22.1334 12.3001 22.0282C11.5366 21.925 11.1314 21.7365 10.8428 21.449C10.5897 21.1948 10.4158 20.8532 10.3064 20.2636C10.1939 19.65 10.1647 18.8428 10.1585 17.7042C10.1579 17.6016 10.1372 17.5001 10.0974 17.4056C10.0576 17.311 9.99962 17.2252 9.92669 17.153C9.85376 17.0808 9.76733 17.0238 9.67233 16.985C9.57734 16.9462 9.47564 16.9266 9.37304 16.9271C9.27045 16.9277 9.16896 16.9484 9.07439 16.9882C8.97981 17.028 8.89399 17.086 8.82184 17.1589C8.74968 17.2318 8.69259 17.3183 8.65383 17.4133C8.61508 17.5082 8.59541 17.6099 8.59596 17.7125C8.60221 18.8396 8.62929 19.7782 8.76992 20.5459C8.91575 21.3355 9.19179 22.0073 9.73867 22.5542C10.3647 23.1813 11.1553 23.45 12.0928 23.5771C12.9949 23.698 14.1439 23.698 15.5678 23.698H16.7241C18.1491 23.698 19.297 23.698 20.2001 23.5771C21.1376 23.45 21.9272 23.1813 22.5543 22.5542C23.1814 21.9271 23.4501 21.1375 23.5772 20.2C23.698 19.2969 23.698 18.148 23.698 16.724V8.27608C23.698 6.85212 23.698 5.70317 23.5772 4.80004C23.4512 3.86254 23.1814 3.07296 22.5543 2.44587C21.9272 1.81879 21.1376 1.55004 20.2001 1.424C19.297 1.30212 18.148 1.30212 16.7241 1.30212H15.5678Z" fill="#737919"/>
<path d="M2.08447 11.7178C1.87727 11.7178 1.67856 11.8001 1.53205 11.9466C1.38553 12.0931 1.30322 12.2918 1.30322 12.499C1.30322 12.7062 1.38553 12.905 1.53205 13.0515C1.67856 13.198 1.87727 13.2803 2.08447 13.2803H14.5563L12.5136 15.0303C12.4357 15.097 12.3716 15.1785 12.3251 15.27C12.2786 15.3615 12.2506 15.4613 12.2427 15.5636C12.2267 15.7703 12.2934 15.9749 12.4282 16.1324C12.563 16.2898 12.7549 16.3873 12.9616 16.4033C13.1683 16.4193 13.3728 16.3526 13.5303 16.2178L17.1761 13.0928C17.2619 13.0194 17.3308 12.9284 17.378 12.8259C17.4252 12.7234 17.4496 12.6119 17.4496 12.499C17.4496 12.3862 17.4252 12.2747 17.378 12.1722C17.3308 12.0697 17.2619 11.9786 17.1761 11.9053L13.5303 8.78029C13.3728 8.64547 13.1683 8.57873 12.9616 8.59475C12.7549 8.61076 12.563 8.70823 12.4282 8.8657C12.2934 9.02318 12.2267 9.22775 12.2427 9.43444C12.2587 9.64112 12.3562 9.83297 12.5136 9.96779L14.5553 11.7178H2.08551H2.08447Z" fill="#737919"/>
</svg>
