<svg width="28" height="28" viewBox="0 0 28 28" fill="none" xmlns="http://www.w3.org/2000/svg">
<path d="M9.99984 14C9.99984 14.1768 9.9296 14.3464 9.80457 14.4714C9.67955 14.5964 9.50998 14.6667 9.33317 14.6667C9.15636 14.6667 8.98679 14.5964 8.86177 14.4714C8.73674 14.3464 8.6665 14.1768 8.6665 14C8.6665 13.8232 8.73674 13.6536 8.86177 13.5286C8.98679 13.4036 9.15636 13.3333 9.33317 13.3333C9.50998 13.3333 9.67955 13.4036 9.80457 13.5286C9.9296 13.6536 9.99984 13.8232 9.99984 14ZM14.6665 14C14.6665 14.1768 14.5963 14.3464 14.4712 14.4714C14.3462 14.5964 14.1766 14.6667 13.9998 14.6667C13.823 14.6667 13.6535 14.5964 13.5284 14.4714C13.4034 14.3464 13.3332 14.1768 13.3332 14C13.3332 13.8232 13.4034 13.6536 13.5284 13.5286C13.6535 13.4036 13.823 13.3333 13.9998 13.3333C14.1766 13.3333 14.3462 13.4036 14.4712 13.5286C14.5963 13.6536 14.6665 13.8232 14.6665 14ZM19.3332 14C19.3332 14.1768 19.2629 14.3464 19.1379 14.4714L19.4801 14.8136L19.1379 14.4714C19.0129 14.5964 18.8433 14.6667 18.6665 14.6667C18.4897 14.6667 18.3201 14.5964 18.1951 14.4714L17.853 14.8136L18.1951 14.4714C18.0701 14.3464 17.9998 14.1768 17.9998 14C17.9998 13.8232 18.0701 13.6536 18.1951 13.5286L17.8423 13.1758L18.1951 13.5286C18.3201 13.4036 18.4897 13.3333 18.6665 13.3333C18.8433 13.3333 19.0129 13.4036 19.1379 13.5286L19.4905 13.176L19.1379 13.5286C19.2629 13.6536 19.3332 13.8232 19.3332 14Z" stroke="#737919"/>
<path d="M25.6666 14C25.6666 19.4997 25.6666 22.2495 23.9574 23.9575C22.2506 25.6667 19.4996 25.6667 13.9999 25.6667C8.50025 25.6667 5.75042 25.6667 4.04125 23.9575C2.33325 22.2507 2.33325 19.4997 2.33325 14C2.33325 8.50034 2.33325 5.75051 4.04125 4.04134C5.75158 2.33334 8.50025 2.33334 13.9999 2.33334C19.4996 2.33334 22.2494 2.33334 23.9574 4.04134C25.0937 5.17768 25.4741 6.77484 25.6024 9.33334" stroke="#737919" stroke-width="1.5" stroke-linecap="round"/>
</svg>
