<svg width="25" height="25" viewBox="0 0 25 25" fill="none" xmlns="http://www.w3.org/2000/svg">
<path d="M22.1353 12.5C22.1353 15.0555 21.1202 17.5063 19.3132 19.3133C17.5062 21.1203 15.0554 22.1355 12.4999 22.1355V23.698C18.6843 23.698 23.6978 18.6844 23.6978 12.5H22.1353ZM12.4999 22.1355C9.94445 22.1355 7.49364 21.1203 5.68665 19.3133C3.87966 17.5063 2.8645 15.0555 2.8645 12.5H1.302C1.302 18.6844 6.31554 23.698 12.4999 23.698V22.1355ZM2.8645 12.5C2.8645 9.94457 3.87966 7.49376 5.68665 5.68677C7.49364 3.87978 9.94445 2.86462 12.4999 2.86462V1.30212C6.31554 1.30212 1.302 6.31567 1.302 12.5H2.8645ZM16.1458 14.8438C14.5572 14.8438 13.0337 14.2127 11.9105 13.0895C10.7872 11.9662 10.1562 10.4427 10.1562 8.85421H8.59367C8.59367 10.8571 9.38933 12.778 10.8056 14.1943C12.2219 15.6106 14.1428 16.4063 16.1458 16.4063V14.8438ZM21.276 11.9469C20.7433 12.8312 19.9909 13.5627 19.092 14.0703C18.193 14.5779 17.1781 14.8443 16.1458 14.8438V16.4063C17.4473 16.407 18.7268 16.0712 19.8603 15.4314C20.9937 14.7917 21.9425 13.8698 22.6145 12.7552L21.276 11.9469ZM10.1562 8.85421C10.1557 7.82188 10.4222 6.80698 10.9298 5.90807C11.4374 5.00916 12.1688 4.25678 13.053 3.724L12.2447 2.3865C11.1302 3.05836 10.2084 4.00696 9.56864 5.14021C8.92892 6.27346 8.59306 7.55286 8.59367 8.85421H10.1562ZM12.4999 2.86462C12.3943 2.86213 12.2939 2.81794 12.2208 2.74171C12.176 2.6982 12.1461 2.64171 12.1353 2.58025C12.1312 2.54796 12.1333 2.45421 12.2447 2.3865L13.053 3.724C13.577 3.40733 13.7458 2.82712 13.6843 2.37087C13.6197 1.89692 13.2468 1.30212 12.4999 1.30212V2.86462ZM22.6145 12.7552C22.5457 12.8667 22.452 12.8688 22.4197 12.8646C22.3583 12.8538 22.3018 12.8239 22.2583 12.7792C22.182 12.706 22.1378 12.6057 22.1353 12.5H23.6978C23.6978 11.7532 23.103 11.3802 22.6291 11.3157C22.1728 11.2542 21.5926 11.423 21.276 11.9469L22.6145 12.7552Z" fill="#737919"/>
</svg>
