<svg width="32" height="32" viewBox="0 0 32 32" fill="none" xmlns="http://www.w3.org/2000/svg">
<path d="M5.15197 21.94C5.87997 24.8507 6.24397 26.3053 7.32797 27.1533C8.41331 28 9.91331 28 12.9133 28H19.0866C22.0866 28 23.5866 28 24.6733 27.1533C25.7573 26.3053 26.1213 24.8507 26.848 21.94C27.992 17.364 28.564 15.0773 27.364 13.5387C26.1626 12 23.8026 12 19.088 12H12.912C8.19464 12 5.83731 12 4.63597 13.5387C3.93064 14.4413 3.83597 15.6027 4.11064 17.3333" stroke="#737919" stroke-width="1.5" stroke-linecap="round"/>
<path d="M26 12.6667L25.0533 9.19334C24.688 7.85334 24.5053 7.18401 24.1307 6.67868C23.7571 6.17663 23.2497 5.78988 22.6667 5.56268C22.08 5.33334 21.3867 5.33334 20 5.33334M6 12.6667L6.94667 9.19334C7.312 7.85334 7.49467 7.18401 7.86933 6.67868C8.2429 6.17663 8.75025 5.78988 9.33333 5.56268C9.92 5.33334 10.6133 5.33334 12 5.33334" stroke="#737919" stroke-width="1.5"/>
<path d="M12 5.33333C12 4.97971 12.1405 4.64057 12.3905 4.39052C12.6406 4.14048 12.9797 4 13.3333 4H18.6667C19.0203 4 19.3594 4.14048 19.6095 4.39052C19.8595 4.64057 20 4.97971 20 5.33333C20 5.68696 19.8595 6.02609 19.6095 6.27614C19.3594 6.52619 19.0203 6.66667 18.6667 6.66667H13.3333C12.9797 6.66667 12.6406 6.52619 12.3905 6.27614C12.1405 6.02609 12 5.68696 12 5.33333Z" stroke="#737919" stroke-width="1.5"/>
</svg>
