<svg width="28" height="28" viewBox="0 0 28 28" fill="none" xmlns="http://www.w3.org/2000/svg">
<path d="M5.83325 13.4167C5.83325 11.2163 5.83325 10.1173 6.51692 9.43367C7.20059 8.75 8.29959 8.75 10.4999 8.75H17.4999C19.7003 8.75 20.7993 8.75 21.4829 9.43367C22.1666 10.1173 22.1666 11.2163 22.1666 13.4167V14.5833C22.1666 16.7837 22.1666 17.8827 21.4829 18.5663C20.7993 19.25 19.7003 19.25 17.4999 19.25H10.4999C8.29959 19.25 7.20059 19.25 6.51692 18.5663C5.83325 17.8827 5.83325 16.7837 5.83325 14.5833V13.4167Z" stroke="#737919" stroke-width="1.5"/>
<path opacity="0.5" d="M22.1666 2.33325V2.91659C22.1666 3.69013 21.8593 4.432 21.3123 4.97898C20.7653 5.52596 20.0235 5.83325 19.2499 5.83325H8.74992C7.97637 5.83325 7.2345 5.52596 6.68752 4.97898C6.14054 4.432 5.83325 3.69013 5.83325 2.91659V2.33325M22.1666 25.6666V25.0833C22.1666 24.3097 21.8593 23.5678 21.3123 23.0209C20.7653 22.4739 20.0235 22.1666 19.2499 22.1666H8.74992C7.97637 22.1666 7.2345 22.4739 6.68752 23.0209C6.14054 23.5678 5.83325 24.3097 5.83325 25.0833V25.6666" stroke="#737919" stroke-width="1.5" stroke-linecap="round"/>
</svg>
