<svg width="29" height="29" viewBox="0 0 29 29" fill="none" xmlns="http://www.w3.org/2000/svg">
<path d="M22.6563 11.733V10.8811C22.6563 6.20608 19.0023 2.41675 14.5001 2.41675C9.99783 2.41675 6.34383 6.20608 6.34383 10.8811V11.733C6.34528 12.7499 6.05509 13.7458 5.50766 14.6028L4.16883 16.6872C2.9472 18.5903 3.88003 21.1773 6.00549 21.7791C11.5591 23.3535 17.441 23.3535 22.9947 21.7791C25.1201 21.1773 26.053 18.5903 24.8313 16.6884L23.4925 14.604C22.9446 13.7472 22.654 12.7512 22.6551 11.7342L22.6563 11.733Z" stroke="#666666" stroke-width="1.5"/>
<path d="M9.0625 22.9585C9.85396 25.0707 11.9891 26.5835 14.5 26.5835C17.0109 26.5835 19.146 25.0707 19.9375 22.9585" stroke="#666666" stroke-width="1.5" stroke-linecap="round"/>
</svg>
