<svg width="26" height="25" viewBox="0 0 26 25" fill="none" xmlns="http://www.w3.org/2000/svg">
<g clip-path="url(#clip0_426_10)">
<path d="M1.73916 13.6029C1.30166 10.5669 1.08291 9.04833 1.70577 7.7508C2.32748 6.45326 3.65265 5.66346 6.30183 4.08616L7.8964 3.13632C10.3003 1.70293 11.5046 0.986816 12.8332 0.986816C14.1619 0.986816 15.365 1.70293 17.7701 3.13632L19.3647 4.08616C22.0127 5.66346 23.3378 6.45326 23.9607 7.7508C24.5824 9.04833 24.3637 10.5669 23.9262 13.6029L23.6061 15.833C23.0454 19.7337 22.7645 21.6829 21.4117 22.848C20.0589 24.0131 18.0752 24.0131 14.1066 24.0131H11.5599C7.5913 24.0131 5.60758 24.0131 4.25479 22.848C2.90199 21.6829 2.62107 19.7337 2.06038 15.833L1.73916 13.6029Z" stroke="white" stroke-width="1.5"/>
<path d="M16.2873 19.408H9.37939" stroke="white" stroke-width="1.5" stroke-linecap="round"/>
</g>
<defs>
<clipPath id="clip0_426_10">
<rect width="25" height="25" fill="white" transform="translate(0.333252)"/>
</clipPath>
</defs>
</svg>
