<svg width="40" height="40" viewBox="0 0 40 40" fill="none" xmlns="http://www.w3.org/2000/svg">
<g clip-path="url(#clip0_441_3310)">
<path fill-rule="evenodd" clip-rule="evenodd" d="M20 40C31.046 40 40 31.046 40 20C40 8.954 31.046 0 20 0C8.954 0 0 8.954 0 20C0 31.046 8.954 40 20 40ZM21.5 14C21.5 13.6022 21.342 13.2206 21.0607 12.9393C20.7794 12.658 20.3978 12.5 20 12.5C19.6022 12.5 19.2206 12.658 18.9393 12.9393C18.658 13.2206 18.5 13.6022 18.5 14V18.5H14C13.6022 18.5 13.2206 18.658 12.9393 18.9393C12.658 19.2206 12.5 19.6022 12.5 20C12.5 20.3978 12.658 20.7794 12.9393 21.0607C13.2206 21.342 13.6022 21.5 14 21.5H18.5V26C18.5 26.3978 18.658 26.7794 18.9393 27.0607C19.2206 27.342 19.6022 27.5 20 27.5C20.3978 27.5 20.7794 27.342 21.0607 27.0607C21.342 26.7794 21.5 26.3978 21.5 26V21.5H26C26.3978 21.5 26.7794 21.342 27.0607 21.0607C27.342 20.7794 27.5 20.3978 27.5 20C27.5 19.6022 27.342 19.2206 27.0607 18.9393C26.7794 18.658 26.3978 18.5 26 18.5H21.5V14Z" fill="#737919"/>
</g>
<defs>
<clipPath id="clip0_441_3310">
<rect width="40" height="40" fill="white"/>
</clipPath>
</defs>
</svg>
