<svg width="25" height="25" viewBox="0 0 25 25" fill="none" xmlns="http://www.w3.org/2000/svg">
<path d="M9.37695 7.29171C9.38945 5.02608 9.49049 3.799 10.2905 2.999C11.2061 2.08337 12.679 2.08337 15.6249 2.08337H16.6665C19.6134 2.08337 21.0863 2.08337 22.002 2.999C22.9165 3.91358 22.9165 5.38754 22.9165 8.33337V16.6667C22.9165 19.6125 22.9165 21.0865 22.002 22.0011C21.0853 22.9167 19.6134 22.9167 16.6665 22.9167H15.6249C12.679 22.9167 11.2061 22.9167 10.2905 22.0011C9.49049 21.2011 9.38945 19.974 9.37695 17.7084" stroke="#737919" stroke-width="1.5" stroke-linecap="round"/>
<path d="M15.6249 12.5H2.08325M2.08325 12.5L5.72909 9.375M2.08325 12.5L5.72909 15.625" stroke="#737919" stroke-width="1.5" stroke-linecap="round" stroke-linejoin="round"/>
</svg>
