<svg width="26" height="23" viewBox="0 0 26 23" fill="none" xmlns="http://www.w3.org/2000/svg">
<g clip-path="url(#clip0_426_20)">
<path d="M13.3627 3.70071L12.741 4.2994L12.7525 4.31206L13.3627 3.70071ZM15.0552 6.61354C15.1342 6.69838 15.2295 6.76642 15.3355 6.81362C15.4414 6.86081 15.5557 6.88619 15.6717 6.88824C15.7876 6.89028 15.9028 6.86895 16.0103 6.82552C16.1178 6.7821 16.2155 6.71745 16.2975 6.63546C16.3795 6.55346 16.4441 6.45579 16.4875 6.34828C16.531 6.24076 16.5523 6.12559 16.5503 6.00965C16.5482 5.89371 16.5228 5.77937 16.4756 5.67345C16.4284 5.56753 16.3604 5.4722 16.2756 5.39315L15.0552 6.61354ZM10.3992 18.4629C8.65385 17.0871 6.74612 15.7435 5.23214 14.0395C3.74924 12.3678 2.71306 10.4175 2.71306 7.88805H0.986084C0.986084 10.9575 2.26404 13.2992 3.94151 15.1862C5.58789 17.0399 7.68789 18.5251 9.32967 19.8191L10.4004 18.4629H10.3992ZM2.71306 7.88805C2.71306 5.41272 4.11191 3.33574 6.02194 2.4619C7.87786 1.61338 10.3716 1.83788 12.741 4.2994L13.9844 3.10318C11.1752 0.182292 7.9101 -0.30011 5.30352 0.891502C2.75451 2.05778 0.986084 4.76568 0.986084 7.88805H2.71306ZM9.32967 19.8191C9.92029 20.2843 10.5535 20.7793 11.1948 21.1547C11.8361 21.5288 12.5683 21.8339 13.3627 21.8339V20.107C13.0058 20.107 12.5867 19.9688 12.0663 19.6637C11.5448 19.3598 11.0048 18.9407 10.3992 18.4629L9.32967 19.8191ZM17.3958 19.8191C19.0376 18.5239 21.1376 17.041 22.7839 15.1862C24.4614 13.2981 25.7394 10.9575 25.7394 7.88805H24.0124C24.0124 10.4175 22.9762 12.3678 21.4933 14.0395C19.9793 15.7435 18.0716 17.0871 16.3262 18.4629L17.3958 19.8191ZM25.7394 7.88805C25.7394 4.76568 23.9721 2.05778 21.4219 0.891502C18.8154 -0.30011 15.5525 0.182291 12.741 3.10203L13.9844 4.2994C16.3538 1.83903 18.8476 1.61338 20.7035 2.4619C22.6136 3.33574 24.0124 5.41157 24.0124 7.88805H25.7394ZM16.3262 18.4629C15.7206 18.9407 15.1807 19.3598 14.6591 19.6637C14.1387 19.9677 13.7196 20.107 13.3627 20.107V21.8339C14.1571 21.8339 14.8894 21.5288 15.5307 21.1547C16.1731 20.7793 16.8052 20.2843 17.3958 19.8191L16.3262 18.4629ZM12.7525 4.31206L15.0552 6.61354L16.2756 5.39315L13.9729 3.09051L12.7525 4.31206Z" fill="#737919"/>
</g>
<defs>
<clipPath id="clip0_426_20">
<rect width="25" height="22.3684" fill="white" transform="translate(0.862793)"/>
</clipPath>
</defs>
</svg>
